<svg width="20" height="18" viewBox="0 0 20 18" fill="none" xmlns="http://www.w3.org/2000/svg">
<path opacity="0.4" d="M19.25 10.4764C18.429 10.4764 17.761 9.81449 17.761 9.00099C17.761 8.1865 18.429 7.52461 19.25 7.52461C19.449 7.52461 19.64 7.44633 19.78 7.30761C19.921 7.1679 20 6.97864 20 6.78146L19.999 4.10415C19.999 1.84102 18.14 0 15.856 0H4.144C1.86 0 0.001 1.84102 0.001 4.10415L0 6.86766C0 7.06485 0.079 7.2541 0.22 7.39381C0.36 7.53253 0.551 7.61081 0.75 7.61081C1.599 7.61081 2.239 8.2083 2.239 9.00099C2.239 9.81449 1.571 10.4764 0.75 10.4764C0.336 10.4764 0 10.8093 0 11.2195V13.8949C0 16.158 1.858 18 4.143 18H15.857C18.142 18 20 16.158 20 13.8949V11.2195C20 10.8093 19.664 10.4764 19.25 10.4764Z" fill="#8A92A6"/>
<path d="M13.4308 8.58868L12.2518 9.73668L12.5308 11.3597C12.5788 11.6407 12.4658 11.9177 12.2348 12.0837C12.0058 12.2517 11.7068 12.2727 11.4548 12.1387L9.99983 11.3737L8.54183 12.1397C8.43383 12.1967 8.31583 12.2267 8.19883 12.2267C8.04583 12.2267 7.89483 12.1787 7.76483 12.0847C7.53483 11.9177 7.42183 11.6407 7.46983 11.3597L7.74783 9.73668L6.56883 8.58868C6.36483 8.39068 6.29383 8.09968 6.38183 7.82868C6.47083 7.55868 6.70083 7.36668 6.98183 7.32668L8.60783 7.08968L9.33683 5.61268C9.46383 5.35868 9.71783 5.20068 9.99983 5.20068H10.0018C10.2848 5.20168 10.5388 5.35968 10.6638 5.61368L11.3928 7.08968L13.0218 7.32768C13.2998 7.36668 13.5298 7.55868 13.6178 7.82868C13.7068 8.09968 13.6358 8.39068 13.4308 8.58868Z" fill="#8A92A6"/>
</svg>
