<svg width="25" height="24" viewBox="0 0 25 24" fill="none" xmlns="http://www.w3.org/2000/svg">
<path d="M11.5625 4H4.5625C4.03207 4 3.52336 4.21071 3.14829 4.58579C2.77321 4.96086 2.5625 5.46957 2.5625 6V20C2.5625 20.5304 2.77321 21.0391 3.14829 21.4142C3.52336 21.7893 4.03207 22 4.5625 22H18.5625C19.0929 22 19.6016 21.7893 19.9767 21.4142C20.3518 21.0391 20.5625 20.5304 20.5625 20V13" stroke="#624DE3" stroke-width="2" stroke-linecap="round" stroke-linejoin="round"/>
<path d="M19.0625 2.50023C19.4603 2.1024 19.9999 1.87891 20.5625 1.87891C21.1251 1.87891 21.6647 2.1024 22.0625 2.50023C22.4603 2.89805 22.6838 3.43762 22.6838 4.00023C22.6838 4.56284 22.4603 5.1024 22.0625 5.50023L12.5625 15.0002L8.5625 16.0002L9.5625 12.0002L19.0625 2.50023Z" stroke="#624DE3" stroke-width="2" stroke-linecap="round" stroke-linejoin="round"/>
</svg>
