<svg width="25" height="24" viewBox="0 0 25 24" fill="none" xmlns="http://www.w3.org/2000/svg">
<path d="M3.5625 6H5.5625H21.5625" stroke="#A30D11" stroke-width="2" stroke-linecap="round" stroke-linejoin="round"/>
<path d="M8.5625 6V4C8.5625 3.46957 8.77321 2.96086 9.14829 2.58579C9.52336 2.21071 10.0321 2 10.5625 2H14.5625C15.0929 2 15.6016 2.21071 15.9767 2.58579C16.3518 2.96086 16.5625 3.46957 16.5625 4V6M19.5625 6V20C19.5625 20.5304 19.3518 21.0391 18.9767 21.4142C18.6016 21.7893 18.0929 22 17.5625 22H7.5625C7.03207 22 6.52336 21.7893 6.14829 21.4142C5.77321 21.0391 5.5625 20.5304 5.5625 20V6H19.5625Z" stroke="#A30D11" stroke-width="2" stroke-linecap="round" stroke-linejoin="round"/>
<path d="M10.5625 11V17" stroke="#A30D11" stroke-width="2" stroke-linecap="round" stroke-linejoin="round"/>
<path d="M14.5625 11V17" stroke="#A30D11" stroke-width="2" stroke-linecap="round" stroke-linejoin="round"/>
</svg>
