<svg width="10" height="14" viewBox="0 0 10 14" fill="none" xmlns="http://www.w3.org/2000/svg">
<path d="M1.27662 6.33356H8.97462C9.54929 6.33356 9.85462 5.65356 9.47262 5.22356L5.62395 0.893559C5.56153 0.823095 5.48486 0.766682 5.39901 0.728047C5.31316 0.689411 5.2201 0.669434 5.12595 0.669434C5.03181 0.669434 4.93875 0.689411 4.8529 0.728047C4.76705 0.766682 4.69038 0.823095 4.62795 0.893559L0.777955 5.22356C0.395955 5.65356 0.701288 6.33356 1.27662 6.33356ZM4.62729 13.1062C4.68972 13.1767 4.76639 13.2331 4.85223 13.2717C4.93808 13.3104 5.03115 13.3304 5.12529 13.3304C5.21943 13.3304 5.3125 13.3104 5.39834 13.2717C5.48419 13.2331 5.56086 13.1767 5.62329 13.1062L9.47195 8.77623C9.85462 8.34689 9.54929 7.66689 8.97395 7.66689H1.27662C0.701955 7.66689 0.396622 8.34689 0.778622 8.77689L4.62729 13.1062Z" fill="#9E9E9E"/>
</svg>
